<svg width="400" height="400" viewBox="0 0 400 400" fill="none" xmlns="http://www.w3.org/2000/svg">
<g clip-path="url(#clip0_152_49)">
<path d="M204.666 30.0673C231.337 30.7997 257.461 37.7997 280.926 50.501L254.739 98.8717C238.868 90.2813 221.198 85.5467 203.159 85.0507L204.666 30.0673Z" fill="#3A3A3A"/>
<path d="M289.015 55.1792C311.738 69.1426 330.857 88.2562 344.826 110.975L297.974 139.781C288.524 124.405 275.587 111.469 260.211 102.02L289.015 55.1792Z" fill="#3A3A3A"/>
<path d="M349.511 119.089C362.201 142.547 369.195 168.661 369.926 195.321L314.958 196.846C314.463 178.805 309.729 161.134 301.139 145.261L349.511 119.089Z" fill="#3A3A3A"/>
<path d="M369.933 204.666C369.2 231.337 362.2 257.461 349.499 280.926L301.128 254.739C309.719 238.868 314.453 221.198 314.949 203.159L369.933 204.666Z" fill="#3A3A3A"/>
<path d="M344.821 289.015C330.857 311.738 311.744 330.857 289.025 344.826L260.219 297.974C275.595 288.524 288.531 275.587 297.98 260.211L344.821 289.015Z" fill="#3A3A3A"/>
<path d="M280.911 349.511C257.453 362.201 231.339 369.195 204.679 369.926L203.154 314.958C221.195 314.463 238.866 309.729 254.739 301.139L280.911 349.511Z" fill="#3A3A3A"/>
<path d="M195.334 369.933C168.663 369.2 142.539 362.2 119.074 349.499L145.261 301.128C161.132 309.719 178.802 314.453 196.841 314.949L195.334 369.933Z" fill="#3A3A3A"/>
<path d="M110.984 344.821C88.2618 330.857 69.1431 311.744 55.1739 289.025L102.026 260.219C111.476 275.595 124.413 288.531 139.789 297.98L110.984 344.821Z" fill="#3A3A3A"/>
<path d="M50.4893 280.911C37.7986 257.454 30.805 231.339 30.0738 204.679L85.0416 203.154C85.5366 221.195 90.2708 238.866 98.8614 254.739L50.4893 280.911Z" fill="#3A3A3A"/>
<path d="M30.0673 195.334C30.7997 168.663 37.7997 142.539 50.501 119.074L98.8716 145.261C90.2813 161.132 85.5467 178.802 85.0507 196.841L30.0673 195.334Z" fill="#3A3A3A"/>
<path d="M55.1792 110.985C69.1425 88.2618 88.2562 69.1431 110.975 55.1739L139.781 102.026C124.405 111.476 111.469 124.413 102.02 139.789L55.1792 110.985Z" fill="#3A3A3A"/>
<path d="M119.089 50.4893C142.546 37.7986 168.661 30.805 195.321 30.0738L196.846 85.0415C178.805 85.5366 161.134 90.2708 145.261 98.8614L119.089 50.4893Z" fill="#3A3A3A"/>
<path d="M204.666 30.0673C231.337 30.7997 257.461 37.7997 280.926 50.501L254.739 98.8717C238.868 90.2813 221.198 85.5467 203.159 85.0507L204.666 30.0673Z" fill="#C8F04A"/>
<path d="M363.069 151.943C370.606 177.532 372.015 204.535 367.183 230.769L313.094 220.805C316.357 203.06 315.399 184.796 310.298 167.489L363.069 151.943Z" fill="#C8F04A"/>
<path d="M296.106 340.227C274.105 355.308 248.863 365.001 222.423 368.521L215.159 314.008C233.05 311.626 250.129 305.066 265.014 294.859L296.106 340.227Z" fill="#C8F04A"/>
<path d="M96.321 334.732C75.1826 318.463 58.169 297.449 46.6558 273.387L96.2667 249.643C104.054 265.925 115.565 280.146 129.868 291.154L96.321 334.732Z" fill="#C8F04A"/>
<path d="M39.8308 143.055C48.763 117.919 63.4849 95.2387 82.8061 76.8466L120.735 116.696C107.663 129.133 97.7019 144.471 91.6554 161.47L39.8308 143.055Z" fill="#C8F04A"/>
<path opacity="0.5" d="M276.014 162.237C280.015 163.309 284.127 160.935 285.199 156.934C286.271 152.933 283.897 148.82 279.896 147.748C275.895 146.676 271.783 149.05 270.711 153.051C269.638 157.052 272.013 161.165 276.014 162.237Z" fill="#C8F04A"/>
<path opacity="0.5" d="M243.066 285.199C247.067 286.272 251.18 283.897 252.252 279.896C253.324 275.895 250.949 271.783 246.948 270.711C242.947 269.638 238.835 272.013 237.763 276.014C236.691 280.015 239.065 284.127 243.066 285.199Z" fill="#C8F04A"/>
<path opacity="0.5" d="M120.104 252.252C124.105 253.324 128.217 250.949 129.289 246.948C130.362 242.947 127.987 238.835 123.986 237.763C119.985 236.691 115.873 239.065 114.801 243.066C113.728 247.067 116.103 251.18 120.104 252.252Z" fill="#C8F04A"/>
<path opacity="0.5" d="M153.051 129.289C157.052 130.361 161.165 127.987 162.237 123.986C163.309 119.985 160.935 115.873 156.934 114.801C152.933 113.728 148.82 116.103 147.748 120.104C146.676 124.105 149.05 128.217 153.051 129.289Z" fill="#C8F04A"/>
<path opacity="0.28" d="M189.647 238.637C210.986 244.355 232.919 231.691 238.637 210.353C244.355 189.014 231.691 167.081 210.353 161.363C189.014 155.645 167.081 168.309 161.363 189.647C155.645 210.986 168.309 232.919 189.647 238.637Z" stroke="#C8F04A" stroke-width="3"/>
<path opacity="0.9" d="M196.441 213.281C203.776 215.247 211.316 210.894 213.281 203.559C215.247 196.224 210.894 188.684 203.559 186.718C196.224 184.753 188.684 189.106 186.719 196.441C184.753 203.776 189.106 211.316 196.441 213.281Z" fill="#C8F04A"/>
</g>
<defs>
<clipPath id="clip0_152_49">
<rect width="400" height="400" fill="white"/>
</clipPath>
</defs>
</svg>
